<svg width="24" height="24" viewBox="0 0 24 24" fill="none" xmlns="http://www.w3.org/2000/svg">
<g id="tdesign:mode-dark">
<path id="Vector" d="M15.844 3.34399L14.416 4.12499L15.844 4.90599L16.625 6.33399L17.406 4.90599L18.834 4.12499L17.406 3.34399L16.625 1.91599L15.844 3.34399ZM10.412 4.15799C9.10231 4.42373 7.88006 5.01332 6.85685 5.87294C5.83364 6.73256 5.04207 7.83481 4.55443 9.07904C4.06679 10.3233 3.89861 11.6698 4.06525 12.9958C4.23189 14.3217 4.72804 15.5848 5.5084 16.6697C6.28875 17.7546 7.32845 18.6267 8.53255 19.2064C9.73664 19.7861 11.0668 20.0549 12.4015 19.9883C13.7362 19.9217 15.033 19.5218 16.1734 18.8251C17.3138 18.1284 18.2615 17.1572 18.93 16C16.5552 15.9815 14.284 15.0252 12.6112 13.3393C10.9385 11.6535 9.99993 9.37486 10 6.99999C10 6.01999 10.131 5.06299 10.412 4.15799ZM2 12C2 6.47698 6.477 1.99999 12 1.99999H13.734L12.866 3.49999C12.287 4.49999 12 5.68999 12 6.99999C11.9998 8.0336 12.2286 9.05443 12.6698 9.98914C13.1111 10.9238 13.7538 11.7492 14.5519 12.406C15.35 13.0629 16.2837 13.5348 17.2858 13.7879C18.288 14.041 19.3337 14.069 20.348 13.87L22.03 13.543L21.487 15.169C20.162 19.137 16.417 22 12 22C6.477 22 2 17.523 2 12ZM20.5 6.41599L21.414 8.08599L23.084 8.99999L21.414 9.91398L20.5 11.584L19.586 9.91398L17.916 8.99999L19.586 8.08599L20.5 6.41599Z" fill="black"/>
</g>
</svg>
